<svg width="152" height="206" viewBox="0 0 152 206" fill="none" xmlns="http://www.w3.org/2000/svg" xmlns:xlink="http://www.w3.org/1999/xlink">
<path d="M48.589,158.015C48.589,158.015 40.818,162.534 54.119,164.064C70.234,165.902 78.47,165.638 96.228,162.277C96.228,162.277 100.897,165.205 107.417,167.74C67.608,184.802 17.321,166.752 48.589,158.015Z" fill="#5382A1"/>
<path d="M43.725,135.751C43.725,135.751 35.009,142.203 48.32,143.579C65.534,145.355 79.128,145.501 102.651,140.971C102.651,140.971 105.905,144.27 111.021,146.073C62.889,160.148 9.28,147.183 43.725,135.751Z" fill="#5382A1"/>
<path d="M84.733,97.984C94.542,109.277 82.156,119.439 82.156,119.439C82.156,119.439 107.063,106.582 95.624,90.481C84.941,75.466 76.749,68.006 121.1,42.284C121.1,42.284 51.483,59.671 84.733,97.984Z" fill="#E76F00"/>
<path d="M137.384,174.483C137.384,174.483 143.134,179.221 131.05,182.887C108.072,189.848 35.412,191.95 15.228,183.164C7.972,180.008 21.579,175.627 25.859,174.708C30.323,173.74 32.874,173.921 32.874,173.921C24.804,168.236 -19.283,185.082 10.48,189.907C91.645,203.069 158.437,183.979 137.384,174.483Z" fill="#5382A1"/>
<path d="M52.326,112.683C52.326,112.683 15.367,121.461 39.238,124.649C49.317,125.998 69.409,125.693 88.125,124.125C103.42,122.835 118.779,120.091 118.779,120.091C118.779,120.091 113.385,122.401 109.484,125.066C71.952,134.936 -0.552,130.344 20.321,120.248C37.973,111.715 52.326,112.683 52.326,112.683Z" fill="#5382A1"/>
<path d="M118.627,149.742C156.779,129.917 139.139,110.865 126.826,113.431C123.808,114.059 122.463,114.604 122.463,114.604C122.463,114.604 123.583,112.849 125.723,112.089C150.081,103.525 168.814,137.346 117.86,150.741C117.86,150.742 118.45,150.214 118.627,149.742Z" fill="#5382A1"/>
<path d="M95.624,0.75C95.624,0.75 116.754,21.886 75.584,54.388C42.57,80.461 68.056,95.326 75.57,112.311C56.299,94.924 42.157,79.618 51.645,65.373C65.571,44.462 104.15,34.324 95.624,0.75Z" fill="#E76F00"/>
<path d="M56.075,203.465C92.697,205.809 148.934,202.165 150.265,184.836C150.265,184.836 147.705,191.405 120,196.622C88.742,202.504 50.191,201.818 27.325,198.048C27.326,198.047 32.006,201.922 56.075,203.465Z" fill="#5382A1"/>
</svg>
