<svg width="76" height="76" viewBox="0 0 76 76" fill="none" xmlns="http://www.w3.org/2000/svg" xmlns:xlink="http://www.w3.org/1999/xlink">
<path d="M37.307,14.669C42.789,14.669 47.698,16.553 51.57,20.228L62.178,9.65C55.736,3.675 47.327,0 37.307,0C22.782,0 10.222,8.307 4.105,20.413L16.463,29.971C19.39,21.185 27.613,14.669 37.307,14.669Z" fill="#EA4335"/>
<path d="M72.894,37.907C72.894,35.483 72.662,33.136 72.306,30.882L37.308,30.882L37.308,44.81L57.346,44.81C56.448,49.38 53.847,53.271 49.944,55.896L61.915,65.161C68.899,58.707 72.894,49.164 72.894,37.907Z" fill="#4285F4"/>
<path d="M16.448,44.146C15.705,41.907 15.271,39.529 15.271,37.058C15.271,34.588 15.69,32.21 16.448,29.971L4.091,20.413C1.566,25.416 0.142,31.067 0.142,37.058C0.142,43.05 1.566,48.701 4.106,53.704L16.448,44.146Z" fill="#FBBC05"/>
<path d="M37.308,74.117C47.343,74.117 55.783,70.828 61.915,65.146L49.944,55.881C46.615,58.12 42.325,59.433 37.308,59.433C27.614,59.433 19.39,52.916 16.448,44.13L4.09,53.688C10.223,65.81 22.782,74.117 37.308,74.117Z" fill="#34A853"/>
</svg>
