<svg width="126" height="120" viewBox="0 0 126 120" fill="none" xmlns="http://www.w3.org/2000/svg" xmlns:xlink="http://www.w3.org/1999/xlink">
<path d="M126,60C126,93.137 97.794,120 63,120C28.206,120 0,93.137 0,60C0,26.863 28.206,0 63,0C97.794,0 126,26.863 126,60Z" fill="#1A1A1A"/>
<path d="M63,68.5C68.247,68.5 72.5,64.247 72.5,59C72.5,53.753 68.247,49.5 63,49.5C57.753,49.5 53.5,53.753 53.5,59C53.5,64.247 57.753,68.5 63,68.5Z" fill="#FFFFFF"/>
<path d="M96.25,68.5C101.497,68.5 105.75,64.247 105.75,59C105.75,53.753 101.497,49.5 96.25,49.5C91.003,49.5 86.75,53.753 86.75,59C86.75,64.247 91.003,68.5 96.25,68.5Z" fill="#FFFFFF"/>
<path d="M29.75,68.5C34.997,68.5 39.25,64.247 39.25,59C39.25,53.753 34.997,49.5 29.75,49.5C24.503,49.5 20.25,53.753 20.25,59C20.25,64.247 24.503,68.5 29.75,68.5Z" fill="#FFFFFF"/>
</svg>
