<svg width="196" height="194" viewBox="0 0 196 194" fill="none" xmlns="http://www.w3.org/2000/svg" xmlns:xlink="http://www.w3.org/1999/xlink">
<path d="M96.746,0.001C47.596,0.001 50.666,21.315 50.666,21.315L50.72,43.396L97.622,43.396L97.622,50.026L32.091,50.026C32.091,50.026 0.641,46.459 0.641,96.052C0.641,145.644 28.091,143.885 28.091,143.885L44.474,143.885L44.474,120.872C44.474,120.872 43.591,93.421 71.487,93.421L118.005,93.421C118.005,93.421 144.141,93.844 144.141,68.162L144.141,25.699C144.141,25.699 148.109,0.001 96.746,0.001ZM70.884,14.85C75.55,14.85 79.322,18.621 79.322,23.288C79.322,27.954 75.55,31.726 70.884,31.726C66.217,31.726 62.446,27.954 62.446,23.288C62.446,18.621 66.217,14.85 70.884,14.85Z" fill="url(#pf_0_137_848)"/>
<path d="M98.142,192.599C147.291,192.599 144.222,171.285 144.222,171.285L144.167,149.204L97.265,149.204L97.265,142.574L162.796,142.574C162.796,142.574 194.247,146.141 194.247,96.549C194.247,46.957 166.796,48.716 166.796,48.716L150.413,48.716L150.413,71.728C150.413,71.728 151.296,99.179 123.401,99.179L76.882,99.179C76.882,99.179 50.747,98.756 50.747,124.438L50.747,166.902C50.747,166.902 46.778,192.599 98.142,192.599ZM124.004,177.751C119.337,177.751 115.566,173.979 115.566,169.313C115.566,164.646 119.337,160.875 124.004,160.875C128.67,160.875 132.441,164.646 132.441,169.313C132.441,173.979 128.67,177.751 124.004,177.751Z" fill="url(#pf_0_137_849)"/>
<defs>
<linearGradient id="pf_0_137_848" x1="19.247" y1="17.325" x2="114.979" y2="112.526" gradientUnits="userSpaceOnUse">
<stop stop-color="#387EB8"/>
<stop offset="1" stop-color="#366994"/>
</linearGradient>
<linearGradient id="pf_0_137_849" x1="78.137" y1="78.32" x2="180.954" y2="175.95" gradientUnits="userSpaceOnUse">
<stop stop-color="#FFE052"/>
<stop offset="1" stop-color="#FFC331"/>
</linearGradient>
</defs>
</svg>
