<svg width="80" height="76" viewBox="0 0 80 76" fill="none" xmlns="http://www.w3.org/2000/svg" xmlns:xlink="http://www.w3.org/1999/xlink">
<path d="M39.008,14.669C44.762,14.669 49.915,16.553 53.978,20.228L65.112,9.65C58.351,3.675 49.525,0 39.008,0C23.762,0 10.58,8.307 4.16,20.413L17.131,29.971C20.203,21.185 28.834,14.669 39.008,14.669Z" fill="#EA4335"/>
<path d="M76.36,37.907C76.36,35.483 76.116,33.136 75.743,30.882L39.009,30.882L39.009,44.81L60.041,44.81C59.099,49.38 56.368,53.271 52.272,55.896L64.836,65.161C72.167,58.707 76.36,49.164 76.36,37.907Z" fill="#4285F4"/>
<path d="M17.115,44.146C16.335,41.907 15.88,39.529 15.88,37.058C15.88,34.588 16.319,32.21 17.115,29.971L4.145,20.413C1.495,25.416 0,31.067 0,37.058C0,43.05 1.495,48.701 4.161,53.704L17.115,44.146Z" fill="#FBBC05"/>
<path d="M39.009,74.117C49.542,74.117 58.4,70.828 64.837,65.146L52.272,55.881C48.778,58.12 44.275,59.433 39.009,59.433C28.834,59.433 20.203,52.916 17.115,44.13L4.145,53.688C10.581,65.81 23.763,74.117 39.009,74.117Z" fill="#34A853"/>
</svg>
