<svg width="94" height="94" viewBox="0 0 94 94" fill="none" xmlns="http://www.w3.org/2000/svg" xmlns:xlink="http://www.w3.org/1999/xlink">
<rect  x="0" y="0" width="92.972" height="92.972" fill="#FFFFFF" fill-opacity="0.01"/>
<rect  x="0" y="0" width="92.972" height="92.972" fill="#FFFFFF" fill-opacity="0.01"/>
<path d="M15.496,58.108L77.477,58.108L77.477,81.351C77.477,83.49 75.743,85.224 73.603,85.224L19.369,85.224C17.23,85.224 15.496,83.49 15.496,81.351L15.496,58.108Z" fill="#000000" stroke="#000000" stroke-width="5.39" stroke-miterlimit="3.999327" stroke-linejoin="round"/>
<path d="M82.867,58.107L82.867,11.622L72.087,11.622L72.087,58.107L82.867,58.107ZM82.867,11.622C82.867,6.505 78.719,2.358 73.603,2.358L73.603,13.138C72.766,13.138 72.087,12.459 72.087,11.622L82.867,11.622ZM73.603,2.358L19.369,2.358L19.369,13.138L73.603,13.138L73.603,2.358ZM19.369,2.358C14.253,2.358 10.106,6.505 10.106,11.622L20.886,11.622C20.886,12.459 20.207,13.138 19.369,13.138L19.369,2.358ZM10.106,11.622L10.106,58.107L20.886,58.107L20.886,11.622L10.106,11.622Z" fill="#000000"/>
<line x1="42.612" y1="66.276" x2="50.359" y2="66.276" stroke="#FFFFFF" stroke-width="5.39" stroke-miterlimit="3.999327" stroke-linecap="round"/>
</svg>
