<svg width="96" height="96" viewBox="0 0 96 96" fill="none" xmlns="http://www.w3.org/2000/svg" xmlns:xlink="http://www.w3.org/1999/xlink">
<path d="M47,-0.875C20.559,-0.875 -0.875,20.559 -0.875,47L8.875,47C8.875,25.944 25.944,8.875 47,8.875L47,-0.875ZM-0.875,47C-0.875,73.44 20.559,94.875 47,94.875L47,85.125C25.944,85.125 8.875,68.056 8.875,47L-0.875,47ZM47,94.875C73.44,94.875 94.875,73.44 94.875,47L85.125,47C85.125,68.056 68.056,85.125 47,85.125L47,94.875ZM94.875,47C94.875,20.559 73.44,-0.875 47,-0.875L47,8.875C68.056,8.875 85.125,25.944 85.125,47L94.875,47Z" fill="#0E8388"/>
<path d="M9.927,71.28C8.267,73.4 8.64,76.464 10.759,78.124C12.879,79.784 15.943,79.412 17.603,77.292L9.927,71.28ZM76.397,77.293C78.058,79.412 81.122,79.784 83.241,78.124C85.361,76.464 85.733,73.4 84.073,71.28L76.397,77.293ZM13.765,74.286C17.603,77.292 17.601,77.295 17.6,77.297C17.599,77.297 17.598,77.3 17.596,77.301C17.594,77.304 17.592,77.306 17.591,77.308C17.587,77.313 17.584,77.317 17.582,77.32C17.577,77.326 17.574,77.329 17.573,77.33C17.572,77.331 17.58,77.321 17.597,77.301C17.631,77.261 17.701,77.18 17.809,77.064C18.023,76.831 18.385,76.458 18.903,75.99C19.938,75.053 21.593,73.738 23.933,72.401C28.581,69.744 36.06,66.925 47,66.925L47,57.175C34.289,57.175 25.151,60.474 19.095,63.936C16.082,65.657 13.863,67.401 12.362,68.759C11.612,69.438 11.04,70.021 10.638,70.457C10.437,70.676 10.278,70.857 10.16,70.997C10.101,71.066 10.052,71.125 10.014,71.173C9.994,71.196 9.977,71.217 9.963,71.235C9.956,71.244 9.949,71.252 9.943,71.26C9.94,71.264 9.938,71.267 9.935,71.271C9.934,71.272 9.932,71.275 9.931,71.276C9.929,71.278 9.927,71.28 13.765,74.286ZM47,66.925C57.939,66.925 65.419,69.744 70.067,72.401C72.407,73.738 74.062,75.053 75.097,75.99C75.615,76.458 75.977,76.831 76.192,77.064C76.299,77.18 76.369,77.261 76.403,77.301C76.42,77.321 76.428,77.331 76.427,77.33C76.426,77.329 76.424,77.326 76.419,77.32C76.416,77.317 76.413,77.313 76.41,77.308C76.408,77.306 76.406,77.304 76.404,77.301C76.403,77.3 76.401,77.298 76.401,77.297C76.399,77.295 76.397,77.293 80.235,74.286C84.073,71.28 84.071,71.278 84.069,71.275C84.068,71.275 84.067,71.272 84.065,71.271C84.063,71.267 84.06,71.264 84.057,71.26C84.051,71.252 84.044,71.244 84.037,71.235C84.023,71.217 84.006,71.196 83.987,71.173C83.948,71.125 83.899,71.066 83.84,70.996C83.722,70.857 83.563,70.675 83.362,70.457C82.96,70.021 82.389,69.438 81.638,68.759C80.137,67.401 77.918,65.657 74.905,63.936C68.849,60.474 59.71,57.175 47,57.175L47,66.925Z" fill="#0E8388"/>
<path d="M47,51.875C56.817,51.875 64.775,43.917 64.775,34.1L55.025,34.1C55.025,38.532 51.432,42.125 47,42.125L47,51.875ZM64.775,34.1C64.775,24.283 56.817,16.325 47,16.325L47,26.075C51.432,26.075 55.025,29.668 55.025,34.1L64.775,34.1ZM47,16.325C37.183,16.325 29.225,24.283 29.225,34.1L38.975,34.1C38.975,29.668 42.568,26.075 47,26.075L47,16.325ZM29.225,34.1C29.225,43.917 37.183,51.875 47,51.875L47,42.125C42.568,42.125 38.975,38.532 38.975,34.1L29.225,34.1Z" fill="#0E8388"/>
</svg>
