<svg width="94" height="94" viewBox="0 0 94 94" fill="none" xmlns="http://www.w3.org/2000/svg" xmlns:xlink="http://www.w3.org/1999/xlink">
<rect  x="0" y="0" width="92.972" height="92.972" fill="#FFFFFF" fill-opacity="0.01"/>
<rect  x="0" y="0" width="92.972" height="92.972" fill="#FFFFFF" fill-opacity="0.01"/>
<path d="M15.495,58.107L77.477,58.107L77.477,81.35C77.477,83.49 75.742,85.224 73.603,85.224L19.369,85.224C17.229,85.224 15.495,83.49 15.495,81.35L15.495,58.107Z" fill="#000000" stroke="#000000" stroke-width="5.39" stroke-miterlimit="3.999327" stroke-linejoin="round"/>
<path d="M82.867,58.107L82.867,11.621L72.086,11.621L72.086,58.107L82.867,58.107ZM82.867,11.621C82.867,6.505 78.719,2.358 73.603,2.358L73.603,13.138C72.765,13.138 72.086,12.459 72.086,11.621L82.867,11.621ZM73.603,2.358L19.369,2.358L19.369,13.138L73.603,13.138L73.603,2.358ZM19.369,2.358C14.253,2.358 10.105,6.505 10.105,11.621L20.885,11.621C20.885,12.459 20.206,13.138 19.369,13.138L19.369,2.358ZM10.105,11.621L10.105,58.107L20.885,58.107L20.885,11.621L10.105,11.621Z" fill="#000000"/>
<line x1="42.611" y1="66.276" x2="50.359" y2="66.276" stroke="#FFFFFF" stroke-width="5.39" stroke-miterlimit="3.999327" stroke-linecap="round"/>
</svg>
