<svg width="56" height="50" viewBox="0 0 56 50" fill="none" xmlns="http://www.w3.org/2000/svg" xmlns:xlink="http://www.w3.org/1999/xlink">
<path d="M24.5,41.583C36.339,41.583 46.333,32.967 46.333,21.875L42.333,21.875C42.333,30.343 34.568,37.583 24.5,37.583L24.5,41.583ZM46.333,21.875C46.333,10.783 36.339,2.167 24.5,2.167L24.5,6.167C34.568,6.167 42.333,13.407 42.333,21.875L46.333,21.875ZM24.5,2.167C12.661,2.167 2.667,10.783 2.667,21.875L6.667,21.875C6.667,13.407 14.432,6.167 24.5,6.167L24.5,2.167ZM2.667,21.875C2.667,32.967 12.661,41.583 24.5,41.583L24.5,37.583C14.432,37.583 6.667,30.343 6.667,21.875L2.667,21.875Z" fill="#333333"/>
<path d="M29.768,16.433C30.592,17.168 31.856,17.097 32.592,16.273C33.327,15.449 33.256,14.185 32.432,13.449L29.768,16.433ZM16.568,13.449C15.745,14.185 15.673,15.449 16.409,16.273C17.144,17.097 18.409,17.168 19.233,16.433L16.568,13.449ZM32.432,13.449C30.369,11.607 27.559,10.5 24.5,10.5L24.5,14.5C26.596,14.5 28.452,15.258 29.768,16.433L32.432,13.449ZM24.5,10.5C21.441,10.5 18.631,11.607 16.568,13.449L19.233,16.433C20.548,15.258 22.405,14.5 24.5,14.5L24.5,10.5Z" fill="#333333"/>
<path d="M40.091,33.114C39.267,32.378 38.002,32.45 37.267,33.274C36.531,34.098 36.603,35.362 37.427,36.098L40.091,33.114ZM47.326,44.937C48.15,45.672 49.414,45.601 50.15,44.777C50.886,43.953 50.814,42.689 49.99,41.953L47.326,44.937ZM37.427,36.098L47.326,44.937L49.99,41.953L40.091,33.114L37.427,36.098Z" fill="#333333"/>
</svg>
