<svg width="114" height="114" viewBox="0 0 114 114" fill="none" xmlns="http://www.w3.org/2000/svg" xmlns:xlink="http://www.w3.org/1999/xlink">
<path d="M42.561,87.319C42.561,87.319 38.336,89.777 45.571,90.607C54.338,91.608 58.818,91.465 68.477,89.639C68.477,89.639 71.021,91.23 74.568,92.609C52.909,101.888 25.551,92.071 42.561,87.319ZM39.913,75.208C39.913,75.208 35.173,78.717 42.415,79.467C51.78,80.434 59.174,80.513 71.975,78.049C71.975,78.049 73.741,79.843 76.523,80.824C50.341,88.481 21.18,81.426 39.913,75.208Z" fill="#0074BD"/>
<path d="M62.222,54.662C67.562,60.808 60.822,66.334 60.822,66.334C60.822,66.334 74.372,59.34 68.15,50.579C62.337,42.412 57.881,38.356 82.007,24.363C82.007,24.364 44.136,33.82 62.222,54.662Z" fill="#EA2D2E"/>
<path d="M90.867,96.278C90.867,96.278 93.995,98.857 87.421,100.85C74.923,104.637 35.393,105.778 24.414,101.002C20.469,99.284 27.869,96.903 30.198,96.401C32.625,95.875 34.011,95.971 34.011,95.971C29.622,92.88 5.64,102.042 21.831,104.669C65.986,111.827 102.318,101.446 90.867,96.278ZM44.595,62.658C44.595,62.658 24.489,67.434 37.476,69.17C42.96,69.904 53.887,69.736 64.073,68.881C72.395,68.182 80.746,66.689 80.746,66.689C80.746,66.689 77.814,67.946 75.691,69.395C55.27,74.766 15.83,72.264 27.185,66.773C36.785,62.13 44.595,62.658 44.595,62.658ZM80.663,82.818C101.42,72.035 91.822,61.672 85.122,63.068C83.485,63.409 82.75,63.706 82.75,63.706C82.75,63.706 83.36,62.749 84.522,62.338C97.775,57.681 107.965,76.078 80.248,83.365C80.248,83.363 80.566,83.075 80.663,82.818Z" fill="#0074BD"/>
<path d="M68.15,1.766C68.15,1.766 79.643,13.266 57.247,30.945C39.286,45.13 53.152,53.216 57.241,62.459C46.755,53 39.065,44.672 44.223,36.921C51.799,25.547 72.786,20.03 68.15,1.766Z" fill="#EA2D2E"/>
<path d="M46.635,112.047C66.554,113.32 97.151,111.338 97.875,101.911C97.875,101.911 96.483,105.485 81.412,108.32C64.408,111.521 43.432,111.148 30.995,109.094C30.995,109.095 33.543,111.205 46.635,112.047Z" fill="#0074BD"/>
</svg>
