<svg width="114" height="114" viewBox="0 0 114 114" fill="none" xmlns="http://www.w3.org/2000/svg" xmlns:xlink="http://www.w3.org/1999/xlink">
<rect  x="1.608" y="1.266" width="110.945" height="110.946" fill="#F0DB4F"/>
<path d="M103.473,85.75C102.661,80.689 99.36,76.438 89.584,72.473C86.188,70.913 82.402,69.795 81.273,67.221C80.873,65.724 80.82,64.88 81.073,63.973C81.801,61.031 85.313,60.114 88.097,60.957C89.89,61.558 91.587,62.94 92.61,65.144C97.398,62.044 97.388,62.064 100.731,59.934C99.507,58.036 98.854,57.161 98.053,56.349C95.173,53.133 91.25,51.476 84.975,51.603L81.707,52.026C78.575,52.817 75.59,54.461 73.84,56.665C68.588,62.624 70.085,73.054 76.476,77.346C82.772,82.071 92.021,83.147 93.202,87.565C94.352,92.975 89.227,94.726 84.132,94.104C80.378,93.323 78.29,91.415 76.033,87.946C71.878,90.35 71.878,90.35 67.607,92.807C68.619,95.021 69.684,96.024 71.382,97.943C79.419,106.094 99.529,105.694 103.136,93.355C103.283,92.932 104.254,90.106 103.473,85.75ZM61.921,52.256L51.544,52.256L51.502,79.085C51.502,84.791 51.797,90.021 50.869,91.624C49.351,94.778 45.416,94.387 43.624,93.775C41.799,92.878 40.871,91.603 39.796,89.801C39.501,89.283 39.279,88.882 39.205,88.851L30.768,94.018C32.171,96.898 34.237,99.397 36.884,101.02C40.839,103.394 46.154,104.121 51.712,102.845C55.33,101.792 58.452,99.609 60.086,96.286C62.449,91.93 61.942,86.658 61.92,80.826C61.973,71.312 61.921,61.8 61.921,52.256Z" fill="#323330"/>
</svg>
