<svg width="114" height="114" viewBox="0 0 114 114" fill="none" xmlns="http://www.w3.org/2000/svg" xmlns:xlink="http://www.w3.org/1999/xlink">
<rect  x="1.608" y="1.608" width="110.945" height="110.946" fill="#F0DB4F"/>
<path d="M103.473,86.092C102.661,81.031 99.36,76.779 89.584,72.815C86.188,71.254 82.402,70.137 81.273,67.563C80.873,66.065 80.82,65.222 81.073,64.315C81.801,61.373 85.313,60.455 88.097,61.299C89.89,61.9 91.587,63.282 92.61,65.486C97.398,62.386 97.388,62.406 100.731,60.276C99.507,58.378 98.854,57.502 98.053,56.691C95.173,53.474 91.25,51.818 84.975,51.945L81.707,52.367C78.575,53.159 75.59,54.803 73.84,57.007C68.588,62.966 70.085,73.396 76.476,77.688C82.772,82.413 92.021,83.488 93.202,87.907C94.352,93.317 89.227,95.068 84.132,94.446C80.378,93.665 78.29,91.757 76.033,88.287C71.878,90.692 71.878,90.692 67.607,93.148C68.619,95.363 69.684,96.366 71.382,98.284C79.419,106.436 99.529,106.035 103.136,93.697C103.283,93.273 104.254,90.448 103.473,86.092ZM61.921,52.598L51.544,52.598L51.502,79.427C51.502,85.132 51.797,90.363 50.869,91.966C49.351,95.12 45.416,94.729 43.624,94.117C41.799,93.22 40.871,91.945 39.796,90.142C39.501,89.625 39.279,89.224 39.205,89.193L30.768,94.36C32.171,97.239 34.237,99.739 36.884,101.362C40.839,103.736 46.154,104.463 51.712,103.187C55.33,102.133 58.452,99.95 60.086,96.628C62.449,92.272 61.942,87 61.92,81.168C61.973,71.654 61.921,62.142 61.921,52.598Z" fill="#323330"/>
</svg>
