<svg width="114" height="114" viewBox="0 0 114 114" fill="none" xmlns="http://www.w3.org/2000/svg" xmlns:xlink="http://www.w3.org/1999/xlink">
<path d="M56.541,2.122C52.799,2.14 49.227,2.458 46.083,3.014C36.821,4.65 35.141,8.075 35.141,14.391L35.141,22.732L57.025,22.732L57.025,25.512L26.927,25.512C20.568,25.512 14.998,29.334 13.256,36.609C11.246,44.944 11.157,50.146 13.256,58.85C14.811,65.33 18.527,69.945 24.887,69.945L32.412,69.945L32.412,59.946C32.412,52.723 38.661,46.351 46.084,46.351L67.943,46.351C74.028,46.351 78.885,41.34 78.885,35.231L78.885,14.392C78.885,8.46 73.881,4.005 67.943,3.015C64.182,2.39 60.281,2.105 56.541,2.122ZM44.706,8.83C46.965,8.83 48.812,10.706 48.812,13.014C48.812,15.312 46.966,17.17 44.706,17.17C42.437,17.17 40.6,15.312 40.6,13.014C40.599,10.706 42.437,8.83 44.706,8.83Z" fill="url(#pf_0_137_822)"/>
<path d="M81.613,25.512L81.613,35.23C81.613,42.764 75.225,49.105 67.942,49.105L46.083,49.105C40.095,49.105 35.141,54.23 35.141,60.226L35.141,81.067C35.141,86.997 40.297,90.486 46.083,92.187C53.01,94.222 59.653,94.591 67.942,92.187C73.451,90.59 78.884,87.38 78.884,81.067L78.884,72.725L57.025,72.725L57.025,69.944L89.827,69.944C96.187,69.944 98.559,65.509 100.771,58.849C103.056,51.994 102.957,45.401 100.771,36.608C99.199,30.275 96.197,25.511 89.827,25.511L81.613,25.512ZM69.318,78.286C71.588,78.286 73.425,80.144 73.425,82.444C73.425,84.75 71.587,86.626 69.318,86.626C67.059,86.626 65.212,84.75 65.212,82.444C65.212,80.144 67.059,78.286 69.318,78.286Z" fill="url(#pf_0_137_823)"/>
<g opacity="0.444">
<path d="M86.601,106.353C86.601,109.493 73.47,112.04 57.274,112.04C41.076,112.04 27.946,109.493 27.946,106.353C27.946,103.213 41.075,100.666 57.274,100.666C73.47,100.666 86.601,103.212 86.601,106.353Z" fill="url(#pf_0_137_824)"/>
</g>
<defs>
<linearGradient id="pf_0_137_822" x1="9.521" y1="4.73" x2="59.62" y2="48.216" gradientUnits="userSpaceOnUse">
<stop stop-color="#5A9FD4"/>
<stop offset="1" stop-color="#306998"/>
</linearGradient>
<linearGradient id="pf_0_137_823" x1="78.987" y1="74.533" x2="61.098" y2="48.998" gradientUnits="userSpaceOnUse">
<stop stop-color="#FFD43B"/>
<stop offset="1" stop-color="#FFE873"/>
</linearGradient>
<radialGradient id="pf_0_137_824" cx="0" cy="0" r="1" gradientUnits="userSpaceOnUse" gradientTransform="matrix(0 -2.84413 12.502323 0 28.577 53.095)">
<stop stop-color="#B8B8B8" stop-opacity="0.498"/>
<stop offset="1" stop-color="#7F7F7F" stop-opacity="0"/>
</radialGradient>
</defs>
</svg>
