<svg width="114" height="114" viewBox="0 0 114 114" fill="none" xmlns="http://www.w3.org/2000/svg" xmlns:xlink="http://www.w3.org/1999/xlink">
<path d="M42.561,87.319C42.561,87.319 38.337,89.777 45.572,90.607C54.339,91.608 58.819,91.465 68.477,89.639C68.477,89.639 71.022,91.23 74.569,92.609C52.909,101.888 25.552,92.071 42.561,87.319ZM39.913,75.208C39.913,75.208 35.174,78.717 42.415,79.466C51.78,80.433 59.174,80.512 71.975,78.048C71.975,78.048 73.742,79.843 76.524,80.823C50.342,88.481 21.181,81.426 39.913,75.208Z" fill="#0074BD"/>
<path d="M62.222,54.662C67.562,60.808 60.822,66.334 60.822,66.334C60.822,66.334 74.372,59.34 68.151,50.579C62.338,42.412 57.881,38.355 82.007,24.363C82.007,24.364 44.137,33.82 62.222,54.662Z" fill="#EA2D2E"/>
<path d="M90.868,96.278C90.868,96.278 93.995,98.857 87.422,100.85C74.924,104.636 35.393,105.777 24.415,101.001C20.47,99.284 27.87,96.902 30.198,96.4C32.626,95.874 34.012,95.97 34.012,95.97C29.622,92.88 5.64,102.041 21.832,104.669C65.986,111.826 102.319,101.445 90.868,96.278ZM44.596,62.658C44.596,62.658 24.49,67.434 37.476,69.17C42.96,69.904 53.888,69.735 64.074,68.881C72.396,68.182 80.747,66.688 80.747,66.688C80.747,66.688 77.815,67.946 75.692,69.394C55.27,74.766 15.83,72.264 27.186,66.773C36.786,62.13 44.596,62.658 44.596,62.658ZM80.663,82.817C101.42,72.034 91.822,61.671 85.123,63.067C83.485,63.408 82.751,63.705 82.751,63.705C82.751,63.705 83.36,62.749 84.523,62.338C97.775,57.681 107.965,76.077 80.249,83.364C80.249,83.362 80.567,83.074 80.663,82.817Z" fill="#0074BD"/>
<path d="M68.15,1.766C68.15,1.766 79.643,13.266 57.247,30.944C39.286,45.13 53.151,53.216 57.241,62.459C46.755,53 39.064,44.672 44.223,36.921C51.799,25.547 72.786,20.03 68.15,1.766Z" fill="#EA2D2E"/>
<path d="M46.635,112.046C66.554,113.32 97.151,111.337 97.875,101.911C97.875,101.911 96.483,105.485 81.412,108.32C64.408,111.521 43.432,111.148 30.995,109.094C30.995,109.095 33.543,111.204 46.635,112.046Z" fill="#0074BD"/>
</svg>
