<svg width="114" height="114" viewBox="0 0 114 114" fill="none" xmlns="http://www.w3.org/2000/svg" xmlns:xlink="http://www.w3.org/1999/xlink">
<path d="M56.54,2.122C52.799,2.14 49.227,2.458 46.083,3.014C36.821,4.65 35.141,8.075 35.141,14.391L35.141,22.732L57.025,22.732L57.025,25.512L26.927,25.512C20.567,25.512 14.998,29.334 13.256,36.608C11.246,44.944 11.157,50.146 13.256,58.85C14.811,65.329 18.526,69.945 24.887,69.945L32.412,69.945L32.412,59.946C32.412,52.722 38.661,46.351 46.083,46.351L67.943,46.351C74.028,46.351 78.885,41.34 78.885,35.23L78.885,14.392C78.885,8.46 73.881,4.005 67.943,3.015C64.182,2.389 60.281,2.105 56.54,2.122ZM44.705,8.83C46.965,8.83 48.812,10.706 48.812,13.014C48.812,15.312 46.966,17.17 44.705,17.17C42.437,17.17 40.599,15.312 40.599,13.014C40.598,10.706 42.437,8.83 44.705,8.83Z" fill="url(#pf_0_197_256)"/>
<path d="M81.614,25.512L81.614,35.23C81.614,42.763 75.226,49.105 67.943,49.105L46.083,49.105C40.096,49.105 35.142,54.23 35.142,60.226L35.142,81.067C35.142,86.996 40.298,90.486 46.083,92.186C53.01,94.222 59.654,94.591 67.943,92.186C73.452,90.59 78.884,87.38 78.884,81.067L78.884,72.725L57.026,72.725L57.026,69.944L89.828,69.944C96.188,69.944 98.559,65.508 100.771,58.849C103.056,51.994 102.958,45.401 100.771,36.608C99.199,30.275 96.197,25.511 89.828,25.511L81.614,25.512ZM69.319,78.285C71.589,78.285 73.426,80.144 73.426,82.444C73.426,84.75 71.588,86.626 69.319,86.626C67.059,86.626 65.213,84.75 65.213,82.444C65.213,80.144 67.059,78.285 69.319,78.285Z" fill="url(#pf_0_197_257)"/>
<g opacity="0.444">
<path d="M86.6,106.354C86.6,109.494 73.47,112.04 57.273,112.04C41.076,112.04 27.945,109.494 27.945,106.354C27.945,103.213 41.075,100.667 57.273,100.667C73.47,100.667 86.6,103.212 86.6,106.354Z" fill="url(#pf_0_197_258)"/>
</g>
<defs>
<linearGradient id="pf_0_197_256" x1="9.521" y1="4.73" x2="59.62" y2="48.216" gradientUnits="userSpaceOnUse">
<stop stop-color="#5A9FD4"/>
<stop offset="1" stop-color="#306998"/>
</linearGradient>
<linearGradient id="pf_0_197_257" x1="78.988" y1="74.532" x2="61.098" y2="48.997" gradientUnits="userSpaceOnUse">
<stop stop-color="#FFD43B"/>
<stop offset="1" stop-color="#FFE873"/>
</linearGradient>
<radialGradient id="pf_0_197_258" cx="0" cy="0" r="1" gradientUnits="userSpaceOnUse" gradientTransform="matrix(0 -2.84413 12.502323 0 28.577 53.095)">
<stop stop-color="#B8B8B8" stop-opacity="0.498"/>
<stop offset="1" stop-color="#7F7F7F" stop-opacity="0"/>
</radialGradient>
</defs>
</svg>
