<svg width="98" height="112" viewBox="0 0 98 112" fill="none" xmlns="http://www.w3.org/2000/svg" xmlns:xlink="http://www.w3.org/1999/xlink">
<path d="M0.365,-0.209L9.232,99.133L49.021,110.124L88.921,99.146L97.796,-0.209L0.365,-0.209ZM79.353,23.311L78.798,29.667L78.553,32.582L31.879,32.582L32.993,44.99L77.444,44.99L77.146,48.066L74.281,80.076L74.07,82.088L49.081,88.956L49.081,88.957L49.051,88.973L24.079,82.395L22.383,63.601L34.627,63.601L35.495,73.278L49.043,76.895L49.081,76.895L49.081,76.411L62.689,72.977L64.111,57.397L21.838,57.397L18.84,23.616L18.548,20.174L79.646,20.174L79.353,23.311Z" fill="#E44D26"/>
</svg>
