<svg width="98" height="112" viewBox="0 0 98 112" fill="none" xmlns="http://www.w3.org/2000/svg" xmlns:xlink="http://www.w3.org/1999/xlink">
<path d="M0.365,0.132L9.232,99.475L49.021,110.466L88.92,99.488L97.796,0.132L0.365,0.132ZM79.353,23.653L78.797,30.009L78.553,32.924L31.878,32.924L32.992,45.331L77.443,45.331L77.145,48.408L74.28,80.418L74.069,82.43L49.08,89.298L49.08,89.299L49.05,89.315L24.078,82.737L22.383,63.943L34.626,63.943L35.494,73.62L49.042,77.236L49.08,77.236L49.08,76.753L62.689,73.318L64.11,57.739L21.838,57.739L18.84,23.958L18.548,20.516L79.646,20.516L79.353,23.653Z" fill="#E44D26"/>
</svg>
