<svg width="82" height="92" viewBox="0 0 82 92" fill="none" xmlns="http://www.w3.org/2000/svg" xmlns:xlink="http://www.w3.org/1999/xlink">
<path d="M79.774,23.483L79.996,23.335C79.553,22.523 78.888,21.784 78.223,21.414L42.543,0.878C41.952,0.509 41.139,0.361 40.253,0.361C39.366,0.361 38.553,0.582 37.962,0.878L2.504,21.488C1.248,22.227 0.361,24.074 0.361,25.477L0.361,66.624C0.361,67.437 0.509,68.323 1.026,69.136L0.878,69.21C1.248,69.801 1.765,70.318 2.282,70.613L37.889,91.224C38.48,91.593 39.292,91.741 40.179,91.741C41.065,91.741 41.878,91.519 42.469,91.224L77.927,70.613C79.183,69.875 80.07,68.028 80.07,66.624L80.07,25.404C80.144,24.813 80.07,24.148 79.774,23.483ZM40.253,64.113C46.975,64.113 52.885,60.419 55.987,54.953L65.517,60.567C60.494,69.284 51.038,75.194 40.253,75.194C24.148,75.194 11.073,62.118 11.073,46.014C11.073,29.91 24.148,16.834 40.253,16.834C51.112,16.834 60.567,22.818 65.591,31.609L55.987,37.149C52.885,31.609 46.975,27.915 40.253,27.915C30.28,27.915 22.154,36.041 22.154,46.014C22.154,55.987 30.28,64.113 40.253,64.113Z" fill="#03599C"/>
</svg>
