<svg width="44" height="36" viewBox="0 0 44 36" fill="none" xmlns="http://www.w3.org/2000/svg" xmlns:xlink="http://www.w3.org/1999/xlink">
<path d="M16.06,33.515C15.792,34.587 16.443,35.672 17.515,35.94C18.587,36.208 19.672,35.557 19.94,34.485L16.06,33.515ZM27.94,2.485C28.208,1.413 27.557,0.328 26.485,0.06C25.413,-0.208 24.328,0.443 24.06,1.515L27.94,2.485ZM35.414,8.586C34.633,7.805 33.367,7.805 32.586,8.586C31.805,9.367 31.805,10.633 32.586,11.414L35.414,8.586ZM42,18L43.414,19.414C44.195,18.633 44.195,17.367 43.414,16.586L42,18ZM32.586,24.586C31.805,25.367 31.805,26.633 32.586,27.414C33.367,28.195 34.633,28.195 35.414,27.414L32.586,24.586ZM8.586,27.414C9.367,28.195 10.633,28.195 11.414,27.414C12.195,26.633 12.195,25.367 11.414,24.586L8.586,27.414ZM2,18L0.586,16.586C-0.195,17.367 -0.195,18.633 0.586,19.414L2,18ZM11.414,11.414C12.195,10.633 12.195,9.367 11.414,8.586C10.633,7.805 9.367,7.805 8.586,8.586L11.414,11.414ZM19.94,34.485L27.94,2.485L24.06,1.515L16.06,33.515L19.94,34.485ZM32.586,11.414L40.586,19.414L43.414,16.586L35.414,8.586L32.586,11.414ZM40.586,16.586L32.586,24.586L35.414,27.414L43.414,19.414L40.586,16.586ZM11.414,24.586L3.414,16.586L0.586,19.414L8.586,27.414L11.414,24.586ZM3.414,19.414L11.414,11.414L8.586,8.586L0.586,16.586L3.414,19.414Z" fill="#FFFFFF"/>
</svg>
