<svg width="40" height="40" viewBox="0 0 40 40" fill="none" xmlns="http://www.w3.org/2000/svg" xmlns:xlink="http://www.w3.org/1999/xlink">
<path d="M6,18L6,20L6,18ZM2,34L0,34L2,34ZM14,2L14,0L14,2ZM26,2L26,0L26,2ZM34,16L6,16L6,20L34,20L34,16ZM34,20C34.53,20 35.039,20.211 35.414,20.586L38.243,17.757C37.117,16.632 35.591,16 34,16L34,20ZM35.414,20.586C35.789,20.961 36,21.47 36,22L40,22C40,20.409 39.368,18.883 38.243,17.757L35.414,20.586ZM36,22L36,34L40,34L40,22L36,22ZM36,34C36,34.53 35.789,35.039 35.414,35.414L38.243,38.243C39.368,37.117 40,35.591 40,34L36,34ZM35.414,35.414C35.039,35.789 34.53,36 34,36L34,40C35.591,40 37.117,39.368 38.243,38.243L35.414,35.414ZM34,36L6,36L6,40L34,40L34,36ZM6,36C5.47,36 4.961,35.789 4.586,35.414L1.757,38.243C2.883,39.368 4.409,40 6,40L6,36ZM4.586,35.414C4.211,35.039 4,34.53 4,34L0,34C0,35.591 0.632,37.117 1.757,38.243L4.586,35.414ZM4,34L4,22L0,22L0,34L4,34ZM4,22C4,21.47 4.211,20.961 4.586,20.586L1.757,17.757C0.632,18.883 0,20.409 0,22L4,22ZM4.586,20.586C4.961,20.211 5.47,20 6,20L6,16C4.409,16 2.883,16.632 1.757,17.757L4.586,20.586ZM36,18L36,14L32,14L32,18L36,18ZM36,14C36,12.409 35.368,10.883 34.243,9.757L31.414,12.586C31.789,12.961 32,13.47 32,14L36,14ZM34.243,9.757C33.117,8.632 31.591,8 30,8L30,12C30.53,12 31.039,12.211 31.414,12.586L34.243,9.757ZM8,18L8,14L4,14L4,18L8,18ZM8,14C8,13.47 8.211,12.961 8.586,12.586L5.757,9.757C4.632,10.883 4,12.409 4,14L8,14ZM8.586,12.586C8.961,12.211 9.47,12 10,12L10,8C8.409,8 6.883,8.632 5.757,9.757L8.586,12.586ZM12,10L12,6L8,6L8,10L12,10ZM12,6C12,5.47 12.211,4.961 12.586,4.586L9.757,1.757C8.632,2.883 8,4.409 8,6L12,6ZM12.586,4.586C12.961,4.211 13.47,4 14,4L14,0C12.409,0 10.883,0.632 9.757,1.757L12.586,4.586ZM14,4L26,4L26,0L14,0L14,4ZM26,4C26.53,4 27.039,4.211 27.414,4.586L30.243,1.757C29.117,0.632 27.591,0 26,0L26,4ZM27.414,4.586C27.789,4.961 28,5.47 28,6L32,6C32,4.409 31.368,2.883 30.243,1.757L27.414,4.586ZM28,6L28,10L32,10L32,6L28,6ZM10,12L30,12L30,8L10,8L10,12Z" fill="#FFFFFF"/>
</svg>
