<svg width="112" height="112" viewBox="0 0 112 112" fill="none" xmlns="http://www.w3.org/2000/svg" xmlns:xlink="http://www.w3.org/1999/xlink">
<path d="M108.909,50.098L60.062,1.253C57.251,-1.56 52.689,-1.56 49.873,1.253L39.731,11.397L52.597,24.263C55.588,23.254 59.016,23.931 61.399,26.314C63.795,28.712 64.467,32.169 63.433,35.17L75.833,47.572C78.833,46.537 82.296,47.206 84.69,49.606C88.04,52.953 88.04,58.38 84.69,61.729C81.34,65.079 75.915,65.079 72.564,61.729C70.045,59.208 69.422,55.508 70.698,52.404L59.134,40.841L59.132,71.275C59.95,71.679 60.72,72.218 61.4,72.896C64.749,76.243 64.749,81.668 61.4,85.022C58.051,88.369 52.623,88.369 49.277,85.022C45.929,81.669 45.929,76.244 49.277,72.896C50.105,72.069 51.062,71.444 52.084,71.026L52.084,40.309C51.062,39.891 50.107,39.27 49.277,38.438C46.741,35.903 46.13,32.181 47.431,29.065L34.746,16.38L1.253,49.872C-1.561,52.687 -1.561,57.25 1.253,60.063L50.101,108.908C52.914,111.721 57.474,111.721 60.292,108.908L108.91,60.29C111.723,57.476 111.723,52.91 108.909,50.098Z" fill="#F34F29"/>
</svg>
