<svg width="20" height="32" viewBox="0 0 20 32" fill="none" xmlns="http://www.w3.org/2000/svg" xmlns:xlink="http://www.w3.org/1999/xlink">
<path d="M4.074,0.586C3.293,-0.195 2.027,-0.195 1.246,0.586C0.465,1.367 0.465,2.633 1.246,3.414L4.074,0.586ZM16.66,16L18.074,17.414C18.855,16.633 18.855,15.367 18.074,14.586L16.66,16ZM1.246,28.586C0.465,29.367 0.465,30.633 1.246,31.414C2.027,32.195 3.293,32.195 4.074,31.414L1.246,28.586ZM1.246,3.414L15.246,17.414L18.074,14.586L4.074,0.586L1.246,3.414ZM15.246,14.586L1.246,28.586L4.074,31.414L18.074,17.414L15.246,14.586Z" fill="#1E293B"/>
</svg>
