<svg width="20" height="32" viewBox="0 0 20 32" fill="none" xmlns="http://www.w3.org/2000/svg" xmlns:xlink="http://www.w3.org/1999/xlink">
<path d="M4.094,0.586C3.313,-0.195 2.047,-0.195 1.266,0.586C0.485,1.367 0.485,2.633 1.266,3.414L4.094,0.586ZM16.68,16L18.094,17.414C18.875,16.633 18.875,15.367 18.094,14.586L16.68,16ZM1.266,28.586C0.485,29.367 0.485,30.633 1.266,31.414C2.047,32.195 3.313,32.195 4.094,31.414L1.266,28.586ZM1.266,3.414L15.266,17.414L18.094,14.586L4.094,0.586L1.266,3.414ZM15.266,14.586L1.266,28.586L4.094,31.414L18.094,17.414L15.266,14.586Z" fill="#1E293B"/>
</svg>
