<svg width="40" height="40" viewBox="0 0 40 40" fill="none" xmlns="http://www.w3.org/2000/svg" xmlns:xlink="http://www.w3.org/1999/xlink">
<path d="M38,20L40,20L38,20ZM20,2L20,0L20,2ZM2,20L0,20L2,20ZM36,20C36,24.243 34.314,28.313 31.314,31.314L34.142,34.142C37.893,30.391 40,25.304 40,20L36,20ZM31.314,31.314C28.313,34.314 24.243,36 20,36L20,40C25.304,40 30.391,37.893 34.142,34.142L31.314,31.314ZM40,20C40,14.696 37.893,9.609 34.142,5.858L31.314,8.686C34.314,11.687 36,15.757 36,20L40,20ZM34.142,5.858C30.391,2.107 25.304,0 20,0L20,4C24.243,4 28.313,5.686 31.314,8.686L34.142,5.858ZM38,18L2,18L2,22L38,22L38,18ZM20,36C15.757,36 11.687,34.314 8.686,31.314L5.858,34.142C9.609,37.893 14.696,40 20,40L20,36ZM8.686,31.314C5.686,28.313 4,24.243 4,20L0,20C0,25.304 2.107,30.391 5.858,34.142L8.686,31.314ZM20,40C21.704,40 23.009,38.962 23.906,37.823C24.822,36.662 25.558,35.105 26.14,33.36C27.31,29.849 28,25.125 28,20L24,20C24,24.815 23.347,29.091 22.345,32.095C21.841,33.607 21.285,34.687 20.765,35.347C20.509,35.672 20.301,35.845 20.163,35.93C20.097,35.97 20.053,35.987 20.031,35.994C20.01,36 20.001,36 20,36L20,40ZM28,20C28,14.875 27.31,10.151 26.14,6.64C25.558,4.895 24.822,3.338 23.906,2.177C23.009,1.038 21.704,0 20,0L20,4C20.001,4 20.01,4 20.031,4.006C20.053,4.013 20.097,4.03 20.163,4.07C20.301,4.155 20.509,4.328 20.765,4.653C21.285,5.313 21.841,6.393 22.345,7.905C23.347,10.909 24,15.185 24,20L28,20ZM20,36C19.999,36 19.99,36 19.969,35.994C19.947,35.987 19.903,35.97 19.837,35.93C19.699,35.845 19.491,35.672 19.235,35.347C18.715,34.687 18.159,33.607 17.655,32.095C16.653,29.091 16,24.815 16,20L12,20C12,25.125 12.69,29.849 13.86,33.36C14.442,35.105 15.178,36.662 16.094,37.823C16.991,38.962 18.296,40 20,40L20,36ZM16,20C16,15.185 16.653,10.909 17.655,7.905C18.159,6.393 18.715,5.313 19.235,4.653C19.491,4.328 19.699,4.155 19.837,4.07C19.903,4.03 19.947,4.013 19.969,4.006C19.99,4 19.999,4 20,4L20,0C18.296,0 16.991,1.038 16.094,2.177C15.178,3.338 14.442,4.895 13.86,6.64C12.69,10.151 12,14.875 12,20L16,20ZM4,20C4,15.757 5.686,11.687 8.686,8.686L5.858,5.858C2.107,9.609 0,14.696 0,20L4,20ZM8.686,8.686C11.687,5.686 15.757,4 20,4L20,0C14.696,0 9.609,2.107 5.858,5.858L8.686,8.686Z" fill="#FFFFFF"/>
</svg>
